<?xml version="1.0" standalone="yes"?>
<svg xmlns="http://www.w3.org/2000/svg" width="360" height="118">
<path style="fill:#ffffff; stroke:none;" d="M0 0L0 118L360 118L360 0L0 0z"/>
<path style="fill:#fbff87; stroke:none;" d="M56 2L46 22C32.8971 15.1688 21.4808 18.1923 13 30C17.6743 36.5719 18.4157 41.3793 16 49C13.2664 46.2652 13.868 44.5649 15 41C7.93388 39.9203 9.86388 49.7728 14.9144 49.0787C18.8884 48.5325 20.3724 42.0487 22.5972 39.3789C27.0165 34.0756 32.2894 32.1393 39 32C34.9926 39.5093 37.9764 45.2348 28 48L28 49L37 49L37 63C31.7462 58.9347 26.6135 52.7469 26 46L25 46L25 64C20.0849 64.0005 14.0743 63.4391 9.76003 66.2631C-1.91716 73.9066 2.16168 91.3475 12.0039 98.5664C17.7968 102.815 29.9321 96.667 23.3966 90.6474C20.167 87.6727 14.9912 92.9981 21 95L20 90C24.1748 92.327 24.1456 98.4743 18.409 98.9444C3.15353 100.195 11.2852 79.0314 13 73C22.2351 71.7771 30.9626 69.661 37.8565 78.5285C40.7412 82.2392 39.9308 87.2122 44 90L44 49L46 49L46 84L47 84L51 73C45.8858 70.1685 47 55.0682 47 49L64 44L66 39C56.9567 41.3549 47.1493 45.3533 47 32L75 34L79 31L47 31L47 29C63.9613 29 89.0274 33.696 104 25L104 24L97 26C98.8237 23.238 102.794 19.5798 102.458 16.0193C101.917 10.2996 95.8143 12.8974 94 16L98 13C103.203 16.0824 98.2748 19.6145 93.9853 19.9452C78.6263 21.1293 62.2563 22 47 22C48.4762 17.1245 52.1004 15.3324 57 15L56 2M251 5C242.531 14.0969 241 15.9078 241 29C237.828 27.7083 234.368 24.9771 230.884 24.7191C220.257 23.932 223 38.5121 223 45L228 40L225 42L224 42L224 31L241 38L241 46L238 49C232.881 49.746 230.011 53.0092 229 58C214.415 54.7493 207.866 63.0047 198 73C198 66.0323 201.091 50.7177 194 47L187 51L187 47L180 53L179 53L178 53C172.673 42.6144 160.617 51.2251 160 60L156 60L156 62L160 62C160.006 69.833 161.771 74.3139 167 80L168 80L169 80L178 75L178 71C169.248 74.2445 170.068 67.312 165 63L165 62C170.016 61.2691 173.804 57.4504 176 53C182.64 58.1943 178.566 67.123 181.345 74.2454C182.368 76.8659 185.554 82.0627 188.145 77.4236C192.082 70.3744 181.611 60.7591 191 55L193 78L199 76L200 76C200.032 84.9927 205.395 91.8117 215 89L215 87C212.253 86.1711 211 86.012 211 89C203.593 84.6879 196.468 72.312 207 67C207.296 76.9818 219.972 94.1927 231.676 92.2809C236.944 91.4204 241.627 86.2658 247 85L254 62L256 62L251 83L252 83L257 64C262.886 68.6038 260.057 76.4411 263.549 82.6358C268.473 91.3685 287.615 89.7928 293 83L272 87L272 86C278.139 83.0019 284.501 78.1882 285 71L287 71L291 80L292 80L296 76L296 75L296 74C291.639 68.2438 294 56.0511 294 49L287 51L285 69L283 69L283 49L273 54L276 55L276 75L280 78L268 76L268 59L259 59L259 58C265.695 56.1605 274.495 49.1944 275 42C281.56 40.4633 290.167 38.8792 294 46L290 48C294.727 47.2104 295.947 43.052 290.941 40.8897C285.192 38.4064 278.951 39.5303 273 40L273 31C267.419 28.455 265.845 22.7223 265 17L257 26L257 21C248.973 26.6545 242.012 35.2313 242 20L247 15L252 15L251 5z"/>
<path style="fill:#1f1f1f; stroke:none;" d="M49 17L50 18L49 17z"/>
<path style="fill:#3f3f3f; stroke:none;" d="M245.667 18.3333L246.333 18.6667L245.667 18.3333z"/>
<path style="fill:#ffffff; stroke:none;" d="M255 24C251.422 29.239 235.833 41.057 245 47L255 24M95.6667 26.3333L96.3333 26.6667L95.6667 26.3333z"/>
<path style="fill:#fbff87; stroke:none;" d="M142 40L144 27C132.591 28.5564 137.024 40.1755 129 46L129 47L135 44C135 54.0159 133.714 64.9945 135.133 74.9059C136.307 83.0982 143.611 76.9033 146 73L142 73C142 64.5298 138.061 44.1169 147 40C147 50.702 141.521 77.5304 157 78C159.104 66.0938 150.043 50.4201 155.858 38.304C159.497 30.721 175.942 30.4765 178 39L174 37L173 38L173 40C177.013 40.8941 182.389 37.7147 177.677 33.7423C172.772 29.6065 160.315 31.7571 155 34L158 26C147.894 27.4016 148.892 34.7557 142 40z"/>
<path style="fill:#ffffff; stroke:none;" d="M20 28C24.7367 32.8369 33.6423 31 40 31L40 29L20 28M44 29L44 31L46 31L46 29L44 29M44 32L44 40L46 40L46 32L44 32M257 52C263.956 47.8659 264.999 42.5594 265 35C254.886 35.3069 257 44.1771 257 52z"/>
<path style="fill:#fbff87; stroke:none;" d="M29 38L27 42L31 44L33 40L29 38z"/>
<path style="fill:#ffffff; stroke:none;" d="M254 38L255 54L256 54L256 38L254 38z"/>
<path style="fill:#1f1f1f; stroke:none;" d="M49.3333 40.6667L49.6667 41.3333L49.3333 40.6667z"/>
<path style="fill:#fbff87; stroke:none;" d="M349 46C343.11 52.466 339.007 54.63 339 64L351 62L350 69C345.505 65.155 343.52 65.029 338 67L345 80C355.981 75.2736 356 68.8083 356 58L348 60L348 56L357 54L350 51L349 46M58 80C67.3456 76.253 80.6691 60.5644 71.1458 50.189C59.7993 37.8272 54.9861 61.0323 55 68C55.0095 72.7564 55.9636 75.7695 58 80M77 84C82.4261 80.8281 86.6919 74.7864 89 69L84 73L84 56L89 58L93 49L87 47L82 51L82 47C71.7104 48.7333 77 75.272 77 84M98 47C94.8441 59.6646 90.9162 66.4822 96 80L104 76C101.142 87.1009 95.1296 80.6051 88.0039 79.5386C82.2683 78.6801 79.9617 84.4586 81 89C84.0497 88.1444 86.2437 85.8923 82 85L88 80L94 90C115.406 86.8806 107.821 62.5174 113 49L98 47M113 53C113 61.9832 111.397 71.9683 116 80L117 80L118 80L130.157 68.4823L132 51C121.82 47.2235 122.269 48.8782 113 53M296 53L296 54L296 55C298.666 58.5188 297.932 62.7244 298.005 66.9961C298.059 70.188 303.044 86.1862 306.481 76.6597C309.081 69.4551 300.056 60.4865 309 55L312 80L320 74C310.505 68.1758 321.833 52.1553 312 47L305 51L305 47L296 53M320 53L317 61L320 62C320.043 67.1963 320.014 74.3277 324.188 78.1451C329.05 82.591 337.148 76.0582 338 71C326.485 75.1766 333.164 64.5351 326 63L326 62C332.365 61.0724 337.789 55.3683 338 49L320 53z"/>
<path style="fill:#1f1f1f; stroke:none;" d="M310.333 49.6667L310.667 50.3333L310.333 49.6667z"/>
<path style="fill:#ffffff; stroke:none;" d="M100 53L100 73L104 73C104 65.482 104.521 59.3666 100 53M230 78C229.406 67.1052 221.084 66 212 66C215.717 79.4836 230.581 82.5881 241 78L241 55C237.856 53.8858 228.276 53.0187 230.902 59.5255C232.103 62.5006 236.468 63.7932 236.951 67.0394C237.545 71.0266 232.808 75.8671 230 78M62 54C62 60.0134 59.8081 69.7538 66 73C66 66.5118 67.9588 58.0728 62 54M122 55C118.589 59.8703 119.332 67.8729 122 73L123 73L122 55M167 55L167 58L171 58L171 55L167 55M327 58L332 56L327 58M242 56L242 77L243 77L247 74L247 56L242 56z"/>
<path style="fill:#fbff87; stroke:none;" d="M272 62L269 66L269 67L273 69L272 62z"/>
<path style="fill:#ffffff; stroke:none;" d="M5 86L6 86C6.13729 73.7185 15.803 68.482 27 68C13.9706 58.1289 2.04388 73.5835 5 86z"/>
<path style="fill:#1f1f1f; stroke:none;" d="M310 75L310 78L311 78L310 75z"/>
<path style="fill:#3f3f3f; stroke:none;" d="M201 84L202 85L201 84z"/>
<path style="fill:#fbff87; stroke:none;" d="M104 99L104 114L116 114L116 99L114 99L114 111L112 111L112 99L109 99L109 111L106 111L106 99L104 99M122 99L122 114L130 114L130 111L126 111L126 102L130 102L130 99L122 99M137 99L137 102L142 102L142 105C136.775 105.872 137.016 109.345 137 114L144 114L144 111L140 111L144 99L137 99M152 99L152 114L153 114L153 107L156 107L156 114L158 114L158 99L152 99M165 99L165 114L168 114L168 107L170 107L170 114L173 114L170 106L173 105L173 99L165 99M180 99L180 114L188 114L188 101L180 99M193 99L193 104L194 104L196 99L193 99M202 99L202 107L206 107L206 111L202 108L202 114L209 114L209 105L205 105L205 102L209 102L209 99L202 99M225 99L225 114L233 114L233 107L230 107L230 111L227 111L227 102L230 102L230 106L233 106L233 99L225 99M241 99L241 114L247 114L247 99L245 99L245 111L242 111L241 99M255 99L255 114L262 114L262 111L257 111L257 99L255 99M267 99L267 102L271 102L271 114L273 114L275 99L267 99M29 105L28 105L29 110L32 110L40 103L44 110L47 110C51.2158 104.548 54.5698 104.993 59 110L60 110L61 110L65 103L68 103L76 110L80 103L81 103L82 103L89 110C84.9724 98.8246 80.6845 105.621 73.4244 105.409C70.9903 105.338 69.4428 102.651 66.9491 102.451C64.1133 102.224 62.5727 104.978 59.9498 105.254C57.2588 105.537 55.566 102.704 52.9498 102.542C50.1241 102.367 48.5285 105.09 45.9252 105.503C43.0789 105.955 41.4376 103.223 38.8696 102.708C34.8776 101.906 32.9916 106.701 29 105z"/>
<path style="fill:#ffffff; stroke:none;" d="M153 102L153 105L156 105L156 102L153 102M168 102L168 105L170 105L170 102L168 102M182 102L182 111L185 111L185 102L182 102z"/>
<path style="fill:#fbff87; stroke:none;" d="M290 106L289 106L293 110C296.995 104.834 300.117 104.696 304 110C310.564 108.215 313.382 103.22 319 110L322 110C326.514 102.689 330.016 107.175 336 110L340 103L343 103L347 109C349.592 97.8708 336.886 106.009 333.65 105.327C331.166 104.804 329.798 102.285 327.015 102.296C324.09 102.306 322.693 105.667 319.91 105.548C317.299 105.436 315.676 102.582 313 102.617C310.322 102.653 308.696 105.525 306 105.525C302.984 105.524 301.189 102.123 298.05 102.465C294.724 102.828 293.378 106.35 290 106z"/>
<path style="fill:#3f3f3f; stroke:none;" d="M39.3333 103.667L39.6667 104.333L39.3333 103.667z"/>
<path style="fill:#1f1f1f; stroke:none;" d="M170 105L170 106L173 106L170 105z"/>
</svg>
